<svg width="944" height="566" viewBox="0 0 944 566" fill="none" xmlns="http://www.w3.org/2000/svg">
<path fill-rule="evenodd" clip-rule="evenodd" d="M631.381 490.291C577.956 511.406 517.109 523.356 452.545 523.356C397.377 523.356 344.923 514.631 297.494 498.919C264.305 540.851 216.138 566 163.596 566C66.3253 566 2.03451e-05 548.536 2.03451e-05 429.234C2.03451e-05 359.257 27.1299 297.05 69.1931 257.575C68.3947 249.976 67.988 242.294 67.988 234.541C67.988 75.0329 250.783 0 463.168 0C675.553 0 837.102 75.0329 837.102 234.541C837.102 235.639 837.094 236.736 837.078 237.832C899.633 271.212 943.333 347.283 943.333 435.783C943.333 555.085 867.074 564.061 769.114 564.061C711.303 564.061 662.046 536.997 631.381 490.291Z" fill="url(#paint0_linear_5_24)"/>
<path fill-rule="evenodd" clip-rule="evenodd" d="M342.541 91.3167C375.131 68.2779 415.724 54.6128 459.731 54.6128C502.92 54.6128 542.821 67.7741 575.094 90.0407C592.524 78.0662 614.045 70.9926 637.333 70.9926C695.439 70.9926 737.105 83.7333 737.105 138.055C737.105 185.224 701.59 224.637 654.196 234.2C654.205 234.941 654.21 235.684 654.21 236.427C654.21 336.84 567.139 418.241 459.731 418.241C352.324 418.241 265.253 336.84 265.253 236.427C265.253 235.136 265.267 233.849 265.296 232.565C213.52 226.102 173.596 184.923 173.596 135.089C173.596 80.7669 215.557 68.0262 274.075 68.0262C300.177 68.0262 324.075 76.7882 342.541 91.3167Z" fill="#FBE8E8"/>
<path d="M339.94 228.303C339.94 249.945 358.493 267.489 381.379 267.489C404.265 267.489 420.676 262.413 420.676 240.771C420.676 219.129 402.123 201.585 379.237 201.585C356.351 201.585 339.94 206.661 339.94 228.303Z" fill="url(#paint1_linear_5_24)"/>
<path d="M548.613 197.712C524.892 197.712 505.661 214.638 505.661 235.518C505.661 256.397 511.225 271.37 534.947 271.37C558.668 271.37 577.899 254.443 577.899 233.564C577.899 212.684 572.335 197.712 548.613 197.712Z" fill="url(#paint2_linear_5_24)"/>
<defs>
<linearGradient id="paint0_linear_5_24" x1="471.667" y1="0" x2="471.667" y2="566" gradientUnits="userSpaceOnUse">
<stop stop-color="#A1C8E5"/>
<stop offset="1" stop-color="#315395"/>
</linearGradient>
<linearGradient id="paint1_linear_5_24" x1="380.308" y1="201.585" x2="380.308" y2="267.489" gradientUnits="userSpaceOnUse">
<stop stop-color="#A1C8E5"/>
<stop offset="1" stop-color="#315395"/>
</linearGradient>
<linearGradient id="paint2_linear_5_24" x1="577.899" y1="234.541" x2="505.661" y2="234.541" gradientUnits="userSpaceOnUse">
<stop stop-color="#A1C8E5"/>
<stop offset="1" stop-color="#315395"/>
</linearGradient>
</defs>
</svg>
